# xmcd CD database file
#
# Track frame offsets:
#	150
#	12738
#	31288
#	53155
#	75087
#	87593
#	110081
#	132916
#	147248
#	168580
#	191535
#	214821
#	234241
#	255544
#	276753
#
# Disc length: 4012 seconds
#
# Revision: 4
# Processed by: cddbd v1.5PL3 Copyright (c) Steve Scherf et al.
# Submitted via: CDex 1.50
#
DISCID=cf0faa0f
DTITLE=女子十二楽坊 - Beautiful Enargy
DYEAR=2003
DGENRE=Fusion
TTITLE0=奇跡
TTITLE1=自由
TTITLE2=世界に一つだけの花
TTITLE3=香格里拉
TTITLE4=五拍(Take Five)
TTITLE5=川の流れのように
TTITLE6=女児夢
TTITLE7=阿拉木汗
TTITLE8=劉三姐
TTITLE9=ラブストーリーは突然に
TTITLE10=山水
TTITLE11=七拍
TTITLE12=紫禁城
TTITLE13=無詞(No Words)
TTITLE14=地上の星
EXTD=YEAR: 2003
EXTT0=
EXTT1=
EXTT2=
EXTT3=
EXTT4=
EXTT5=
EXTT6=
EXTT7=
EXTT8=
EXTT9=
EXTT10=
EXTT11=
EXTT12=
EXTT13=
EXTT14=
PLAYORDER=
